<?xml version="1.0" encoding="UTF-8"?>
<svg viewBox="0 0 45.717178 46.295876" xmlns="http://www.w3.org/2000/svg">
 <defs>
  <linearGradient id="a" x2="0" y1="-35.774" y2="145.91" gradientUnits="userSpaceOnUse">
   <stop stop-color="#fb9e00" offset="0"/>
   <stop stop-color="#f44f00" offset="1"/>
  </linearGradient>
  <linearGradient id="b" x1="917.54" x2="906.42" y1="449.64" y2="543.56" gradientUnits="userSpaceOnUse">
   <stop stop-color="#fff" offset="0"/>
   <stop stop-color="#fff" stop-opacity=".66667" offset="0"/>
   <stop stop-color="#9dbbe1" stop-opacity=".08943" offset="1"/>
  </linearGradient>
 </defs>
 <g transform="matrix(.26119 0 0 .26119 -213.9 -115.42)">
  <path transform="matrix(.96342 0 0 .97561 1051.6 476.79)" d="m-59.822 55.066c0 50.17-40.671 90.841-90.841 90.841s-90.841-40.671-90.841-90.841 40.671-90.841 90.841-90.841 90.841 40.671 90.841 90.841z" fill="#f44800"/>
  <path transform="matrix(.91463 0 0 .91463 1044.3 480.15)" d="m-59.822 55.066c0 50.17-40.671 90.841-90.841 90.841s-90.841-40.671-90.841-90.841 40.671-90.841 90.841-90.841 90.841 40.671 90.841 90.841z" fill="url(#a)"/>
  <g transform="translate(-137.92 288.37)" fill="#fff">
   <path transform="matrix(.6614 0 0 .62588 1049.6 94.657)" d="m29.357 296.26c0 9.0245-7.3158 16.34-16.34 16.34s-16.34-7.3158-16.34-16.34 7.3158-16.34 16.34-16.34 16.34 7.3158 16.34 16.34z"/>
   <path transform="matrix(.6614 0 0 .62588 1007.4 94.31)" d="m29.357 296.26c0 9.0245-7.3158 16.34-16.34 16.34s-16.34-7.3158-16.34-16.34 7.3158-16.34 16.34-16.34 16.34 7.3158 16.34 16.34z"/>
   <path d="m1089.7 214.97c-3.0278-0.0128-6.3415 1.8535-8.0815 4.7724l-18.106 30.355h-54.772c-4.397 0-7.9369 3.2426-7.9369 7.2759s3.5399 7.2759 7.9369 7.2759h55.558c1.821 0 3.4794-0.56697 4.8158-1.506 1.4449-0.82838 2.735-2.0214 3.6171-3.501l18.705-31.392h15.791c4.3599 0 7.8748-2.9422 7.8748-6.5913s-3.5149-6.5913-7.8748-6.5913h-16.494c-0.3425-0.0536-0.6806-0.0963-1.0334-0.0978z"/>
   <path transform="matrix(.55965 0 0 .52959 994.36 -7.7821)" d="m29.911 462.71c0 7.9538-6.4478 14.402-14.402 14.402s-14.402-6.4478-14.402-14.402 6.4478-14.402 14.402-14.402 14.402 6.4478 14.402 14.402z"/>
   <path transform="matrix(.55965 0 0 .52959 1012.6 -7.7821)" d="m29.911 462.71c0 7.9538-6.4478 14.402-14.402 14.402s-14.402-6.4478-14.402-14.402 6.4478-14.402 14.402-14.402 14.402 6.4478 14.402 14.402z"/>
   <path transform="matrix(.55965 0 0 .52959 1030.9 -7.7821)" d="m29.911 462.71c0 7.9538-6.4478 14.402-14.402 14.402s-14.402-6.4478-14.402-14.402 6.4478-14.402 14.402-14.402 14.402 6.4478 14.402 14.402z"/>
   <path transform="matrix(.55965 0 0 .52959 1049.2 -7.7821)" d="m29.911 462.71c0 7.9538-6.4478 14.402-14.402 14.402s-14.402-6.4478-14.402-14.402 6.4478-14.402 14.402-14.402 14.402 6.4478 14.402 14.402z"/>
   <path transform="matrix(.55965 0 0 .52959 982.17 -27.109)" d="m29.911 462.71c0 7.9538-6.4478 14.402-14.402 14.402s-14.402-6.4478-14.402-14.402 6.4478-14.402 14.402-14.402 14.402 6.4478 14.402 14.402z"/>
   <path transform="matrix(.55965 0 0 .52959 1000.5 -27.109)" d="m29.911 462.71c0 7.9538-6.4478 14.402-14.402 14.402s-14.402-6.4478-14.402-14.402 6.4478-14.402 14.402-14.402 14.402 6.4478 14.402 14.402z"/>
   <path transform="matrix(.55965 0 0 .52959 1018.8 -27.109)" d="m29.911 462.71c0 7.9538-6.4478 14.402-14.402 14.402s-14.402-6.4478-14.402-14.402 6.4478-14.402 14.402-14.402 14.402 6.4478 14.402 14.402z"/>
   <path transform="matrix(.55965 0 0 .52959 1037 -27.109)" d="m29.911 462.71c0 7.9538-6.4478 14.402-14.402 14.402s-14.402-6.4478-14.402-14.402 6.4478-14.402 14.402-14.402 14.402 6.4478 14.402 14.402z"/>
   <path transform="matrix(.55965 0 0 .52959 1055 -27.109)" d="m29.911 462.71c0 7.9538-6.4478 14.402-14.402 14.402s-14.402-6.4478-14.402-14.402 6.4478-14.402 14.402-14.402 14.402 6.4478 14.402 14.402z"/>
  </g>
  <path d="m906.47 447.42c-45.16 0-81.909 36.056-83.062 80.938 37.387 15.04 95.243 25.784 166.03-2.0938-2.2099-43.915-38.505-78.844-82.969-78.844z" fill="url(#b)" opacity=".7572"/>
 </g>
</svg>
