<?xml version='1.0' encoding='utf-8'?>
<svg xmlns="http://www.w3.org/2000/svg" width="1000" height="1000" viewBox="0 0 264.58332 264.58334" version="1.1" id="svg5"> <defs id="defs2"/> <metadata id="metadata856"> </metadata> <rect style="fill:#f7f7f7;fill-opacity:1;stroke:none;stroke-width:10.5833;stroke-linecap:square;stroke-miterlimit:4;stroke-dasharray:none;stroke-opacity:1;paint-order:stroke markers fill" id="rect35197" width="264.58334" height="264.58334" x="-2.0258789e-05" y="0"/> <path id="rect857" style="fill:none;fill-opacity:1;stroke:#4d4d4d;stroke-width:30;stroke-linecap:butt;stroke-opacity:1;paint-order:fill markers stroke" d="M 269.99994 374.82205 L 269.99994 312.93734 C 269.99994 310.84997 271.69209 309.15781 273.77946 309.15781 L 273.77946 309.15781 L 576.43341 309.15781 C 578.52076 309.15781 580.21293 310.84996 580.21293 312.93734 L 580.21293 635.57205 L 428.93371 635.57205 " transform="scale(0.26458333)"/> <path id="path1037" style="fill:none;fill-opacity:1;stroke:#4d4d4d;stroke-width:30;stroke-linecap:round;stroke-opacity:1;paint-order:fill markers stroke" d="M 336.76575 635.57205 L 273.77946 635.57205 C 271.69209 635.57205 269.99994 633.87992 269.99994 631.79252 L 269.99994 505.89225 " transform="scale(0.26458333)"/> <path id="rect881" style="fill:none;fill-opacity:1;stroke:#4d4d4d;stroke-width:7.9375;stroke-linecap:round;stroke-opacity:1;paint-order:fill markers stroke" d="m 172.28356,168.16177 h -18.76884 v -74.986446 0 h 38.24684 c 0.62533,0 1.20989,0.310356 1.56021,0.82835 l 20.43051,30.209476 c 0.36509,0.53985 0.56021,1.17664 0.56021,1.82835 v 41.12027 c 0,0.55229 -0.44772,1 -1,1 h -16.64597"/> <ellipse style="fill:none;fill-opacity:1;stroke:#4d4d4d;stroke-width:6.61458;stroke-linecap:round;stroke-miterlimit:4;stroke-dasharray:none;stroke-opacity:1;paint-order:fill markers stroke" id="path1227" cx="101.28675" cy="171.78027" rx="11.725318" ry="11.666513"/> <ellipse style="fill:none;fill-opacity:1;stroke:#4d4d4d;stroke-width:6.61458;stroke-linecap:round;stroke-miterlimit:4;stroke-dasharray:none;stroke-opacity:1;paint-order:fill markers stroke" id="circle1147" cx="184.46339" cy="171.78027" rx="11.725318" ry="11.666513"/> <path id="path1149" style="fill-opacity:1;stroke:#0573e1;stroke-width:6.61458;stroke-linecap:round;stroke-miterlimit:4;stroke-dasharray:none;stroke-opacity:1;paint-order:fill markers stroke;fill:none" d="m 166.92933,105.12976 h 17.56591 c 0.62575,0 1.21114,0.309 1.56417,0.82566 l 14.37036,21.67577 c 0.2394,0.35035 -0.0115,0.82566 -0.43583,0.82566 h -33.06461 c -0.55228,0 -1,-0.44772 -1,-1 v -21.32709 c 0,-0.55228 0.44772,-1 1,-1 z"/> <ellipse style="fill:#4d4d4d;fill-opacity:1;stroke:none;stroke-width:6.61459;stroke-linecap:round;stroke-miterlimit:4;stroke-dasharray:none;paint-order:fill markers stroke" id="ellipse13014" cx="101.28675" cy="171.78027" rx="4.6302085" ry="4.630208"/> <ellipse style="fill:#4d4d4d;fill-opacity:1;stroke:none;stroke-width:6.61459;stroke-linecap:round;stroke-miterlimit:4;stroke-dasharray:none;paint-order:fill markers stroke" id="ellipse30754" cx="184.46339" cy="171.78027" rx="4.6302085" ry="4.630208"/> <path style="fill:none;stroke:#0573e1;stroke-width:6.61458325;stroke-linecap:round;stroke-linejoin:miter;stroke-miterlimit:4;stroke-dasharray:none;stroke-opacity:1" d="M 55.891795,100.23005 H 102.62479" id="path6228"/> <path style="fill:none;stroke:#0573e1;stroke-width:6.61458325;stroke-linecap:round;stroke-linejoin:miter;stroke-miterlimit:4;stroke-dasharray:none;stroke-opacity:1" d="M 66.475129,110.81339 H 113.20813" id="path67632"/> <path style="fill:none;stroke:#0573e1;stroke-width:6.61458325;stroke-linecap:round;stroke-linejoin:miter;stroke-miterlimit:4;stroke-dasharray:none;stroke-opacity:1" d="M 40.016794,121.39673 H 86.74979" id="path67634"/> <path style="fill:none;stroke:#0573e1;stroke-width:6.61458325;stroke-linecap:round;stroke-linejoin:miter;stroke-miterlimit:4;stroke-dasharray:none;stroke-opacity:1" d="M 50.600128,131.98007 H 97.333124" id="path67636"/> </svg>